#!OML:ASF F:\VICON\USERDATA\INSTALL\rory3\rory3.ASF
:FULLY-SPECIFIED
:DEGREES
225
root 0.220275 17.9467 15.0675 -0.615018 -3.13143 -7.42476
lowerback 10.7238 1.38698 6.78882
upperback 0.257548 2.81471 2.33595
thorax -5.5483 1.23325 -1.78912
lowerneck -16.6656 -2.92627 -1.7648
upperneck 20.8704 -3.54299 -0.215636
head 9.35917 -1.81594 -0.236639
rclavicle 6.65307e-015 1.81888e-014
rhumerus -21.31 -9.83184 -80.4153
rradius 33.7193
rwrist -3.06354
rhand -20.1719 23.1214
rfingers 7.12502
rthumb 6.17382 -6.76861
lclavicle 6.65307e-015 1.81888e-014
lhumerus -34.3273 9.78845 80.0608
lradius 26.3282
lwrist 8.80949
lhand -30.2745 13.0042
lfingers 7.12502
lthumb -3.58259 42.9539
rfemur 1.68249 6.24389 35.4874
rtibia 24.2506
rfoot -17.6475 -11.2233
rtoes 6.55516
lfemur -28.2511 -1.06524 -11.5561
ltibia 29.6989
lfoot -5.51085 8.96841
ltoes -2.3275
226
root 0.231732 17.9233 15.2454 -0.52041 -3.37227 -7.51313
lowerback 10.6917 1.51845 6.94215
upperback 0.274281 3.00291 2.32326
thorax -5.48965 1.32364 -1.9132
lowerneck -16.8392 -2.92928 -1.62415
upperneck 20.9614 -3.55367 -0.334626
head 9.41765 -1.82238 -0.305917
rclavicle -2.43884e-014 -1.23246e-014
rhumerus -20.9666 -9.826 -80.3726
rradius 33.9647
rwrist -3.02647
rhand -20.1287 22.7467
rfingers 7.12502
rthumb 6.21552 -7.14215
lclavicle -2.43884e-014 -1.23246e-014
lhumerus -34.405 10.6096 79.7245
lradius 26.4584
lwrist 6.7493
lhand -29.521 13.8738
lfingers 7.12502
lthumb -2.85484 43.8344
rfemur 2.47882 6.22242 35.516
rtibia 23.8899
rfoot -17.9622 -11.0274
rtoes 5.89027
lfemur -27.9284 -1.79909 -11.1487
ltibia 26.5499
lfoot -4.9041 9.78387
ltoes -4.30739
227
root 0.239678 17.9078 15.4322 -0.49558 -3.45305 -7.45135
lowerback 10.3549 1.60346 6.86661
upperback 0.39208 3.06594 2.29037
thorax -5.17214 1.3696 -1.89919
lowerneck -16.6476 -2.88006 -1.21557
upperneck 20.667 -3.52719 -0.631074
head 9.26485 -1.8121 -0.464958
rclavicle -1.99406e-015 -2.78299e-014
rhumerus -20.5885 -9.75721 -80.3299
rradius 34.1324
rwrist -2.93804
rhand -20.1455 22.6536
rfingers 7.12502
rthumb 6.19932 -7.23567
lclavicle -1.99406e-015 -2.78299e-014
lhumerus -34.4636 11.0639 79.59
lradius 26.4118
lwrist 5.82731
lhand -27.5671 19.9019
lfingers 7.12502
lthumb -0.967824 49.8795
rfemur 3.25709 6.18179 35.415
rtibia 23.6676
rfoot -18.4216 -10.8883
rtoes 6.10993
lfemur -27.3396 -2.70737 -10.8484
ltibia 23.3688
lfoot -4.61164 10.4466
ltoes -5.39756
228
root 0.247723 17.8985 15.6118 -0.300385 -3.50631 -7.44013
lowerback 10.0548 1.66088 6.81079
upperback 0.337391 3.11103 2.27698
thorax -5.05982 1.39608 -1.87739
lowerneck -16.3451 -2.78349 -1.17176
upperneck 20.5217 -3.42302 -0.569452
head 9.15892 -1.7541 -0.431106
rclavicle 7.78366e-015 2.76311e-014
rhumerus -20.3644 -9.75145 -80.2538
rradius 34.1803
rwrist -2.9678
rhand -20.0972 23.0737
rfingers 7.12502
rthumb 6.246 -6.81421
lclavicle 7.78366e-015 2.76311e-014
lhumerus -34.6186 11.3946 79.4716
lradius 25.9098
lwrist 5.53595
lhand -27.4686 21.4066
lfingers 7.12502
lthumb -0.872672 51.3846
rfemur 3.7515 6.23395 35.3468
rtibia 23.5328
rfoot -18.5552 -10.7433
rtoes 6.33502
lfemur -26.8824 -3.69486 -10.409
ltibia 20.2576
lfoot -4.3927 10.9
ltoes -6.38855
229
root 0.251882 17.8771 15.7761 -0.227369 -3.79102 -7.59548
lowerback 10.3324 1.78088 6.87415
upperback 0.219157 3.31232 2.30712
thorax -5.32346 1.48225 -1.92214
lowerneck -16.3877 -2.79309 -1.42814
upperneck 20.7098 -3.43326 -0.293411
head 9.24266 -1.74764 -0.298492
rclavicle 3.2638e-014 3.27995e-014
rhumerus -20.122 -9.88673 -80.1896
rradius 34.0939
rwrist -2.92671
rhand -20.16 23.1247
rfingers 7.12502
rthumb 6.18537 -6.76504
lclavicle 3.2638e-014 3.27995e-014
lhumerus -34.9137 11.3733 79.4979
lradius 25.5737
lwrist 5.95689
lhand -29.0779 16.8077
lfingers 7.12502
lthumb -2.42696 46.7736
rfemur 4.30404 6.42108 35.5375
rtibia 23.4615
rfoot -18.354 -10.8223
rtoes 4.70199
lfemur -26.3391 -4.65688 -9.67402
ltibia 17.2785
lfoot -4.03713 11.3727
ltoes -7.19027
230
root 0.26271 17.8639 15.9521 -0.174928 -3.96991 -7.41858
lowerback 10.3556 1.89595 6.70056
upperback 0.232593 3.44357 2.26846
thorax -5.31889 1.55117 -1.885
lowerneck -16.6669 -2.90742 -1.64518
upperneck 20.9611 -3.56229 -0.159205
head 9.3897 -1.80841 -0.240331
rclavicle -2.80038e-014 -4.1049e-014
rhumerus -19.6751 -9.94731 -80.048
rradius 33.8745
rwrist -2.79498
rhand -20.1562 23.2858
rfingers 7.12502
rthumb 6.189 -6.60377
lclavicle -2.80038e-014 -4.1049e-014
lhumerus -35.0638 11.1846 79.8318
lradius 25.1965
lwrist 7.48557
lhand -29.6318 15.1163
lfingers 7.12502
lthumb -2.96184 45.0754
rfemur 4.89875 6.38009 35.3165
rtibia 23.4392
rfoot -18.3916 -10.9427
rtoes 2.3055
lfemur -25.7304 -5.86312 -9.29822
ltibia 14.5346
lfoot -4.44501 12.0439
ltoes -4.41168
231
root 0.282435 17.8552 16.1346 -0.0193813 -3.99072 -7.21954
lowerback 10.114 1.94731 6.62191
upperback 0.221084 3.47849 2.21045
thorax -5.19315 1.57401 -1.89605
lowerneck -16.7899 -2.95076 -1.65848
upperneck 21.158 -3.59888 -0.238386
head 9.48032 -1.83469 -0.274255
rclavicle -3.721e-014 -9.93923e-015
rhumerus -19.4322 -9.88988 -79.8921
rradius 33.8324
rwrist -2.69855
rhand -20.1753 23.362
rfingers 7.12502
rthumb 6.17057 -6.52812
lclavicle -3.721e-014 -9.93923e-015
lhumerus -35.1686 9.95193 80.9538
lradius 26.2711
lwrist 10.5416
lhand -31.3365 28.0706
lfingers 7.12502
lthumb -4.60808 58.0005
rfemur 5.35481 6.1698 34.9611
rtibia 23.4842
rfoot -18.7301 -10.7708
rtoes 0.936154
lfemur -25.2741 -7.00192 -9.06383
ltibia 12.0861
lfoot -4.97425 12.436
ltoes -1.92404
